<?xml version="1.0" encoding="utf-8"?>
<!-- Generator: Adobe Illustrator 16.0.3, SVG Export Plug-In . SVG Version: 6.00 Build 0)  -->
<!DOCTYPE svg PUBLIC "-//W3C//DTD SVG 1.1//EN" "http://www.w3.org/Graphics/SVG/1.1/DTD/svg11.dtd">
<svg version="1.1" id="Layer_1" xmlns="http://www.w3.org/2000/svg" xmlns:xlink="http://www.w3.org/1999/xlink" x="0px" y="0px"
	 width="841.9px" height="347.8px" viewBox="0 123.7 841.9 347.8" enable-background="new 0 123.7 841.9 347.8"
	 xml:space="preserve">
<path d="M175.2,233.3c7.5,15.2,14.7,26.3,22.6,36.4c-1.2,2.6-2.2,5.3-3.2,7.9c-1,2.6-1.4,5.1-2,7.7c-7.3-4.6-14.8-8.7-23.4-12.9
	c-8.3-4.2-17.6-8.3-29.1-12.1c-11.5-3.8-25.3-6.9-38.2-8.3c-12.9-1.4-24.6-1-34.1,0.4c-9.5,1.4-16.6,3.8-23.2,7.3
	c7.5,0.2,14.9,1.2,31.5,4.4c16.4,3.2,42,8.7,63,16.8c21,8.1,37.4,19,47.1,26.9c9.7,7.9,12.5,13.1,13.3,18.6
	c-21.8-10.1-44.5-18.4-64.7-24c-20.2-5.5-38-8.3-55.6-7.9c-17.4,0.4-34.6,4.2-47.9,7.9c-13.1,4-22.6,7.7-31.3,12.9
	c27.5-3,55.4-3.4,79.4-1.4c23.8,2.2,43.6,6.7,57.6,10.7c13.9,4,22,7.1,29.5,11.3c-13.3-0.2-26.3,0.2-41,1.2
	c-14.7,1-30.7,2.8-45.1,6.1c-14.5,3.4-27.3,8.5-36,13.7c-8.7,5.1-13.7,10.1-16.8,16c25.7-5.7,51.5-11.5,68.7-13.3
	c17.2-1.8,25.9,0.2,34.7,2.4c-9.5,2-19,5-26.3,7.9c-7.3,3-12.5,6.1-16.4,9.9s-6.5,8.1-9.1,12.5c-2.6,4.4-4.8,8.7-5.1,14.3
	c-0.4,5.3,1.2,11.9,3,17.6s3.8,10.7,6.9,14.7c3.2,4,7.5,6.5,12.7,8.9c5.1,2.4,10.7,4.4,16.6,5.1c5.9,0.8,12.1,0.2,16.2-0.6
	c4.2-0.8,6.3-1.6,10.3,0.4s9.7,6.7,16.2,10.9c6.5,4.2,14.1,7.3,20.4,7.7c6.3,0.6,11.7-1.8,16.4-4.4s8.9-5.5,13.5-8.7
	s9.5-6.5,14.3-8.7s9.7-2.8,14.8-3.8c5.1-1,10.5-2.4,15.4-4.2c5-1.8,9.3-3.8,13.1-7.3c7.5-7.1,12.9-21,14.9-35.2
	c18.6,0.4,37,0.8,55.4,1.4c18.2,0.6,36.4,1.4,46.5-0.8c10.1-2.2,12.5-7.9,18.4-12.5c5.9-4.6,15.4-8.1,24.2-7.9s16.4,4.4,21.4,8.9
	c5,4.6,7.3,9.5,17.4,11.5c10.1,2,28.1,1.2,46.3,0.8c18.2-0.6,36.8-0.8,55.2-1.2c-0.8,9.5,1.6,19.2,7.1,27.1s14.1,13.7,21,17.2
	c7.1,3.6,12.7,4.8,18.8,5.3s12.5,0.6,17.2,2.6c4.6,2,7.5,5.7,10.7,8.9s6.9,6.1,12.3,8.1c5.1,2,12.1,3.2,19.4,1.4
	c7.3-1.6,15.4-6.1,21-10.3s8.7-7.7,12.1-8.7c3.4-1,6.9,1,12.5,1.8c5.3,0.8,12.7,0.6,20.6-2.4c8.1-3,16.8-8.7,22.2-16
	s7.1-16.2,6.5-24.6c-0.6-8.3-3.4-16.2-9.7-23s-16-12.5-23.6-16c-7.5-3.6-12.9-4.8-18.2-5c11.3-3.8,22.8-7.7,39.4-6.3
	c16.6,1.4,38.8,7.5,61,13.9c-5.7-7.3-13.1-13.5-22.8-18.4c-9.5-5-21.4-8.7-33.5-11.5s-24.4-4.6-39-5.5c-14.7-1-31.9-1.2-48.9-0.6
	c25.3-9.1,51.5-16,75.4-19.8c24-3.8,45.3-4.6,61.2-4.6s25.7,0.6,35.6,2.2c-15.4-7.7-31.9-13.5-47.7-17c-15.8-3.6-31.1-5.1-49.5-3.4
	c-18.4,1.8-39.8,6.9-57.4,12.5c-17.6,5.5-31.3,11.3-44.4,18.4c17.2-14.8,35.6-28.1,50.1-36.4s24.8-11.7,36-15
	c11.3-3.4,23.6-6.9,33.7-9.5c10.1-2.6,18.2-4.6,26.5-6.1c-25.5-7.5-53.3-7.5-81.4,0.2c-14.1,4-28.1,9.9-38.2,14.7
	c-10.1,4.8-16.2,8.5-21.8,12.9c-1.8-3.8-3.4-7.9-4.4-10.9c-1.2-3.2-1.8-5.3,1.2-11.3s9.7-15.2,15.6-24.9
	c5.9-9.7,11.3-19.8,17.2-34.3c5.9-14.5,12.7-33.3,14.5-46.7c1.8-13.5-1.4-21.6-5.1-26.5c-3.8-4.9-8.1-6.9-17.6-6.9
	s-24.4,1.8-38.2,4.6c-13.9,3-27.1,6.9-41,12.7c-13.9,5.7-28.3,13.3-42.2,22c-20.2-10.9-42-19.2-64.7-24.6c-23-5.5-47.1-8.1-71.5-7.1
	c-24.2,1-48.5,5.5-68.3,11.1s-34.8,12.1-48.7,20.6c-23-12.7-47.1-23.4-66.1-29.7c-19.4-6.5-33.5-8.5-43-9.7s-14.7-1-19.2-0.2
	c-4.4,0.8-8.1,2.4-11.1,4.6c-3,2.2-5.5,5.1-6.5,10.5c-1.2,5.3-0.8,13.1-0.2,20.2c0.6,7.1,2,13.5,6.5,26.3
	C159.8,198.8,167.7,218.2,175.2,233.3z M336.2,375.5c-19.4,2-39.4-6.3-51.9-21.6c-12.3-15-16.6-36.4-10.9-55
	c5.1-16.8,17.8-30.9,34.3-37.8c16.2-6.7,35.4-5.7,50.9,2.6c15.4,8.3,26.9,23.6,30.3,41c3.8,19.2-2.6,40-16.2,53.9
	C362.7,367.9,349.9,374.1,336.2,375.5z M513.6,375.5c-19.4,2-39.4-6.3-51.9-21.6c-12.3-15-16.6-36.4-10.9-55
	c5.1-16.8,17.8-30.9,34.3-37.8c16.2-6.7,35.4-5.7,50.9,2.6s26.9,23.6,30.3,41c3.8,19.2-2.6,40-16.2,53.9
	C540.3,367.9,527.3,374.1,513.6,375.5z M329.3,287.3c-1.6,0.6-3.6,1.8-5.7,8.5c-1.4,4.4-2.6,11.9-2.6,20.2c0,6.5,0.8,12.9,1.8,17.2
	c2,8.1,4.2,9.9,5.3,10.9c1.8,1.4,3.2,1.4,5-0.6c1.6-1.4,4-4.8,5.5-14.1c1.4-7.7,1.4-19.2,0-27.3c-1.4-8.5-3.6-11.7-4.8-13.3
	C331.8,286.8,330.7,286.8,329.3,287.3z M506.7,287.3c-1.6,0.6-3.6,1.8-5.7,8.5c-1.4,4.4-2.6,11.9-2.6,20.2c0,6.5,0.8,12.9,1.8,17.2
	c2,8.1,4.2,9.9,5.3,10.9c1.8,1.4,3.2,1.4,5-0.6c1.6-1.4,4-4.8,5.5-14.1c1.4-7.7,1.4-19.2,0-27.3c-1.4-8.5-3.6-11.7-4.8-13.3
	C509.4,286.8,508.3,286.8,506.7,287.3z"/>
</svg>
